<svg width="166" height="88" viewBox="0 0 166 88" fill="none" xmlns="http://www.w3.org/2000/svg">
<g filter="url(#filter0_d_13635_10964)">
<path d="M9 16.97C9 9.38348 15.1501 3.2334 22.7366 3.2334H62.9673C70.5538 3.2334 76.7039 9.38348 76.7039 16.97V59.0299C76.7039 66.6165 70.5538 72.7665 62.9673 72.7665H22.7366C15.1501 72.7665 9 66.6165 9 59.0299V16.97Z" fill="white"/>
</g>
<path d="M52.9044 25.1615C52.9044 23.8414 52.6444 22.5342 52.1393 21.3146C51.6341 20.095 50.8936 18.9869 49.9602 18.0534C49.0267 17.12 47.9186 16.3795 46.699 15.8744C45.4794 15.3692 44.1722 15.1092 42.8521 15.1092C41.532 15.1092 40.2249 15.3692 39.0053 15.8744C37.7857 16.3795 36.6775 17.12 35.7441 18.0534C34.8106 18.9869 34.0702 20.095 33.565 21.3146C33.0598 22.5342 32.7998 23.8414 32.7998 25.1615L35.1219 25.1615C35.1219 24.1463 35.3218 23.1411 35.7103 22.2033C36.0988 21.2654 36.6682 20.4132 37.386 19.6954C38.1038 18.9776 38.956 18.4082 39.8939 18.0197C40.8318 17.6312 41.837 17.4312 42.8521 17.4312C43.8673 17.4312 44.8725 17.6312 45.8104 18.0197C46.7482 18.4082 47.6004 18.9776 48.3182 19.6954C49.0361 20.4132 49.6055 21.2654 49.9939 22.2033C50.3824 23.1411 50.5824 24.1463 50.5824 25.1615L52.9044 25.1615Z" fill="#FEC803"/>
<path d="M62.6172 28.2355C62.6172 26.5377 61.2408 25.1613 59.5429 25.1613H26.162C24.4641 25.1613 23.0877 26.5377 23.0877 28.2355V44.8714C23.0877 53.7174 30.2588 60.8884 39.1048 60.8884H46.6001C55.4461 60.8884 62.6172 53.7173 62.6172 44.8713V28.2355Z" fill="#576AFF"/>
<path d="M30.0054 43.2493C30.8532 45.993 32.5571 48.3931 34.8676 50.0983C37.1781 51.8035 39.9739 52.7242 42.8455 52.7255C45.7171 52.7268 48.5137 51.8087 50.8258 50.1057C53.1379 48.4026 54.844 46.004 55.6943 43.2612L50.5555 41.6681C50.0455 43.3135 49.022 44.7523 47.6351 45.7739C46.2481 46.7955 44.5706 47.3462 42.848 47.3454C41.1254 47.3446 39.4483 46.7923 38.0623 45.7694C36.6763 44.7466 35.6542 43.3068 35.1457 41.661L30.0054 43.2493Z" fill="#F9C338"/>
<path fill-rule="evenodd" clip-rule="evenodd" d="M135.133 38.1177C136.577 38.1177 137.748 39.2886 137.748 40.7329V54.6479C137.801 56.1705 139.067 57.3887 140.603 57.3887H142.671V57.3945H155.137C155.19 57.3945 155.242 57.3961 155.294 57.3992V57.383H157.36C158.93 57.383 160.202 56.1109 160.202 54.5418C160.202 53.0275 159.017 51.79 157.524 51.7053C157.512 51.7056 157.5 51.7058 157.489 51.7059C157.478 51.7061 157.467 51.7061 157.456 51.7061L145.939 51.7061C144.495 51.7061 143.324 50.5353 143.324 49.0909C143.324 47.9783 144.019 47.0279 144.998 46.6501L161.635 38.4268C162.93 37.7868 164.498 38.3176 165.138 39.6124C165.778 40.9072 165.247 42.4757 163.952 43.1157L157.162 46.4721H157.376C161.834 46.4721 165.447 50.0859 165.447 54.5437C165.447 59.0016 161.834 62.6153 157.376 62.6153H155.363C155.288 62.6217 155.213 62.625 155.137 62.625H141.708C141.651 62.625 141.593 62.6231 141.537 62.6194H140.588C136.296 62.6194 132.787 59.2706 132.531 55.0437C132.522 54.9557 132.517 54.8665 132.517 54.7762V54.7043C132.516 54.6521 132.516 54.5998 132.516 54.5474H132.517V40.7329C132.517 39.2886 133.688 38.1177 135.133 38.1177ZM130.151 55.0899C129.879 59.3013 126.376 62.6328 122.096 62.6328H120.013V62.6302C120.001 62.6304 119.989 62.6304 119.978 62.6304L86.6255 62.6304C85.1812 62.6304 84.0103 61.4596 84.0103 60.0152C84.0103 58.5709 85.1812 57.4 86.6255 57.4H119.978C120.012 57.4 120.047 57.4007 120.082 57.402H122.081C123.651 57.402 124.938 56.1299 124.938 54.5607H124.938V40.7415C124.938 39.2971 126.109 38.1262 127.554 38.1262C128.998 38.1262 130.169 39.2971 130.169 40.7415V54.7848C130.169 54.888 130.163 54.9898 130.151 55.0899ZM86.301 55.1374H119.961L119.97 55.1257C120.014 55.128 120.059 55.1291 120.104 55.1291C121.549 55.1291 122.72 53.9582 122.72 52.5139V40.7523C122.72 39.308 121.549 38.1371 120.104 38.1371C118.66 38.1371 117.489 39.308 117.489 40.7523V49.3072C117.468 49.8903 117.049 50.3554 116.478 50.3554H89.2148V40.7523C89.2148 39.308 88.044 38.1371 86.5996 38.1371C85.1553 38.1371 83.9844 39.308 83.9844 40.7523V52.5139C83.9844 53.8573 84.9972 54.9641 86.301 55.1123V55.1374ZM100.493 42.5151C100.493 42.3875 100.502 42.2621 100.52 42.1393V39.009C100.52 38.5335 100.905 38.148 101.381 38.148C101.856 38.148 102.242 38.5335 102.242 39.009V40.0384C102.516 39.941 102.812 39.888 103.12 39.888H105.799C107.25 39.888 108.426 41.0642 108.426 42.5151C108.426 43.9661 107.25 45.1423 105.799 45.1423H103.12C103.044 45.1423 102.969 45.1391 102.895 45.1328C102.868 45.1354 102.84 45.1367 102.812 45.1367H102.242V45.1391H100.52V45.1367H100.089C99.6134 45.1367 99.228 44.7513 99.228 44.2758C99.228 43.8003 99.6134 43.4149 100.089 43.4149H100.52V42.8909C100.502 42.7682 100.493 42.6427 100.493 42.5151ZM102.413 42.5197C102.413 42.0379 102.803 41.6474 103.285 41.6474H105.818C106.299 41.6474 106.69 42.0379 106.69 42.5197C106.69 43.0015 106.299 43.3921 105.818 43.3921H103.285C102.803 43.3921 102.413 43.0015 102.413 42.5197Z" fill="#FEC803"/>
<path fill-rule="evenodd" clip-rule="evenodd" d="M137.827 14.778C137.209 13.4723 135.65 12.9146 134.344 13.5322C133.691 13.841 133.225 14.3853 133 15.0157L125.19 31.5218C124.573 32.8274 125.13 34.3866 126.436 35.0043C127.742 35.622 129.301 35.0643 129.918 33.7587L131.4 30.6281H139.405C139.449 30.6281 139.493 30.627 139.536 30.6249L141.019 33.7602C141.637 35.0658 143.196 35.6236 144.502 35.006C145.807 34.3884 146.365 32.8293 145.748 31.5236L137.827 14.778ZM137.064 25.3977H133.874L135.469 22.0266L137.064 25.3977ZM105.205 15.907C105.205 14.4627 106.376 13.2918 107.821 13.2918H107.843H119.656C121.101 13.2918 122.272 14.4627 122.272 15.907C122.272 17.3514 121.101 18.5223 119.656 18.5223H110.458V21.6346H116.438C117.882 21.6346 119.053 22.8055 119.053 24.2499C119.053 25.6942 117.882 26.8651 116.438 26.8651H110.458V29.9853H119.656C121.101 29.9853 122.272 31.1561 122.272 32.6005C122.272 34.0448 121.101 35.2157 119.656 35.2157H107.987C107.939 35.2183 107.891 35.2196 107.843 35.2196C107.681 35.2196 107.522 35.2049 107.368 35.1768C106.14 34.9625 105.205 33.8906 105.205 32.6005C105.205 32.4854 105.213 32.3721 105.227 32.261V24.5894C105.213 24.4783 105.205 24.3649 105.205 24.2499C105.205 24.1348 105.213 24.0215 105.227 23.9103V16.2466C105.213 16.1354 105.205 16.0221 105.205 15.907ZM153.576 15.907C153.576 14.4627 152.405 13.2918 150.961 13.2918C149.516 13.2918 148.345 14.4627 148.345 15.907V32.4983C148.344 32.5322 148.343 32.5662 148.343 32.6004C148.343 33.0168 148.441 33.4105 148.614 33.76C149.04 34.6247 149.931 35.2196 150.961 35.2196C151.009 35.2196 151.058 35.2183 151.106 35.2157H162.794C164.239 35.2157 165.41 34.0448 165.41 32.6004C165.41 31.1561 164.239 29.9852 162.794 29.9852H153.576V15.907ZM89.24 18.5209L92.2176 18.5209V18.5268C93.7381 18.5268 95.1964 19.1308 96.2716 20.206C97.3468 21.2812 97.9508 22.7395 97.9508 24.2601C97.9508 25.7806 97.3468 27.2389 96.2716 28.3141C95.1964 29.3893 93.7381 29.9933 92.2176 29.9933V30.0239H89.24L89.24 18.5209ZM92.544 35.2543C92.7514 35.2543 92.9531 35.2302 93.1466 35.1846C95.7141 34.9663 98.1342 33.8487 99.9702 32.0127C102.026 29.9566 103.181 27.1679 103.182 24.2601C103.182 21.3522 102.026 18.5635 99.9702 16.5074C97.99 14.5271 95.3302 13.3826 92.539 13.3009C92.4615 13.2939 92.383 13.2904 92.3036 13.2904H86.6279C85.2559 13.2904 84.1306 14.347 84.0214 15.6908C84.0135 15.7734 84.0095 15.8571 84.0095 15.9418L84.0095 32.275C83.9929 32.394 83.9844 32.5156 83.9844 32.6391C83.9844 34.0834 85.1553 35.2543 86.5996 35.2543H86.6122L86.6247 35.2544L86.6373 35.2543H92.544Z" fill="#576AFF"/>
<defs>
<filter id="filter0_d_13635_10964" x="0.436929" y="0.557439" width="84.8302" height="86.6593" filterUnits="userSpaceOnUse" color-interpolation-filters="sRGB">
<feFlood flood-opacity="0" result="BackgroundImageFix"/>
<feColorMatrix in="SourceAlpha" type="matrix" values="0 0 0 0 0 0 0 0 0 0 0 0 0 0 0 0 0 0 127 0" result="hardAlpha"/>
<feOffset dy="5.88711"/>
<feGaussianBlur stdDeviation="4.28154"/>
<feComposite in2="hardAlpha" operator="out"/>
<feColorMatrix type="matrix" values="0 0 0 0 0 0 0 0 0 0 0 0 0 0 0 0 0 0 0.15 0"/>
<feBlend mode="normal" in2="BackgroundImageFix" result="effect1_dropShadow_13635_10964"/>
<feBlend mode="normal" in="SourceGraphic" in2="effect1_dropShadow_13635_10964" result="shape"/>
</filter>
</defs>
</svg>
